<?xml version="1.0" encoding="utf-8"?>
<!-- Generator: Adobe Illustrator 27.1.0, SVG Export Plug-In . SVG Version: 6.00 Build 0)  -->
<svg version="1.1" xmlns="http://www.w3.org/2000/svg" xmlns:xlink="http://www.w3.org/1999/xlink" x="0px" y="0px"
	 viewBox="0 0 32 32" style="enable-background:new 0 0 32 32;" xml:space="preserve">
<style type="text/css">
	.st0{fill:#FFFFFF;}
	.st1{fill:#DEDFDF;}
	.st2{fill:none;stroke:#E72D37;stroke-width:0.25;stroke-miterlimit:10;}
	.st3{fill:#B5B5B7;stroke:#AEAEAE;stroke-width:0.125;stroke-miterlimit:10;}
</style>
<g id="레이어_1">
	<rect x="0.8" y="0.8" class="st0" width="10" height="10"/>
	<rect x="11" y="0.8" class="st0" width="10" height="10"/>
	<rect x="21.1" y="0.8" class="st0" width="10" height="10"/>
	<rect x="0.8" y="11" class="st0" width="10" height="10"/>
	<rect x="11" y="11" class="st0" width="10" height="10"/>
	<rect x="21.1" y="11" class="st0" width="10" height="10"/>
	<rect x="0.8" y="21.1" class="st0" width="10" height="10"/>
	<rect x="11" y="21.1" class="st0" width="10" height="10"/>
	<rect x="21.1" y="21.1" class="st0" width="10" height="10"/>
	<path class="st1" d="M1.7,5.4L1.7,5.4z"/>
	<line class="st2" x1="5.8" y1="0.8" x2="5.8" y2="11"/>
	<line class="st2" x1="5.8" y1="21" x2="5.8" y2="11"/>
	<line class="st2" x1="5.8" y1="31.2" x2="5.8" y2="21"/>
	<line class="st2" x1="16" y1="10.7" x2="6" y2="0.8"/>
	<line class="st2" x1="6" y1="20.6" x2="16" y2="10.8"/>
	<line class="st2" x1="16.1" y1="31.2" x2="6" y2="20.6"/>
	<line class="st2" x1="26.1" y1="11" x2="21.1" y2="21"/>
	<line class="st2" x1="16.1" y1="31.2" x2="21.1" y2="21.1"/>
	<line class="st2" x1="26.1" y1="10.9" x2="21.1" y2="0.9"/>
	<line class="st2" x1="31.2" y1="21" x2="26.2" y2="11"/>
	<line class="st3" x1="0.8" y1="0.8" x2="0.8" y2="1.9"/>
	<line class="st3" x1="1.8" y1="0.8" x2="0.8" y2="0.8"/>
	<line class="st3" x1="0.8" y1="31.1" x2="1.8" y2="31.1"/>
	<line class="st3" x1="0.8" y1="30.1" x2="0.8" y2="31.2"/>
	<line class="st3" x1="31.1" y1="31.2" x2="31.1" y2="30.1"/>
	<line class="st3" x1="30.1" y1="31.2" x2="31.2" y2="31.2"/>
	<line class="st3" x1="31.2" y1="0.9" x2="30.1" y2="0.9"/>
	<line class="st3" x1="31.2" y1="1.9" x2="31.2" y2="0.8"/>
	<line class="st3" x1="21" y1="0.9" x2="20" y2="0.9"/>
	<line class="st3" x1="21" y1="1.9" x2="21" y2="0.8"/>
	<line class="st3" x1="22" y1="0.9" x2="21" y2="0.9"/>
	<line class="st3" x1="10.9" y1="0.9" x2="9.9" y2="0.9"/>
	<line class="st3" x1="10.9" y1="1.9" x2="10.9" y2="0.8"/>
	<line class="st3" x1="11.9" y1="0.9" x2="10.9" y2="0.9"/>
	<line class="st3" x1="0.8" y1="10.9" x2="0.8" y2="12"/>
	<line class="st3" x1="1.8" y1="10.9" x2="0.8" y2="10.9"/>
	<line class="st3" x1="0.8" y1="9.9" x2="0.8" y2="10.9"/>
	<line class="st3" x1="0.9" y1="21.1" x2="0.9" y2="22.1"/>
	<line class="st3" x1="1.9" y1="21.1" x2="0.8" y2="21.1"/>
	<line class="st3" x1="0.9" y1="20.1" x2="0.9" y2="21.1"/>
	<line class="st3" x1="10.9" y1="31.1" x2="12" y2="31.1"/>
	<line class="st3" x1="10.9" y1="30.1" x2="10.9" y2="31.2"/>
	<line class="st3" x1="9.9" y1="31.1" x2="10.9" y2="31.1"/>
	<line class="st3" x1="21.1" y1="31.1" x2="22.1" y2="31.1"/>
	<line class="st3" x1="21.1" y1="30.1" x2="21.1" y2="31.2"/>
	<line class="st3" x1="20" y1="31.1" x2="21.1" y2="31.1"/>
	<line class="st3" x1="31.1" y1="10.9" x2="31.1" y2="9.9"/>
	<line class="st3" x1="30.1" y1="10.9" x2="31.2" y2="10.9"/>
	<line class="st3" x1="31.1" y1="12" x2="31.1" y2="10.9"/>
	<line class="st3" x1="31.1" y1="21.1" x2="31.1" y2="20.1"/>
	<line class="st3" x1="30.1" y1="21.1" x2="31.2" y2="21.1"/>
	<line class="st3" x1="31.1" y1="22.2" x2="31.1" y2="21.1"/>
	<line class="st3" x1="21.1" y1="21.1" x2="21.1" y2="20.1"/>
	<line class="st3" x1="20.1" y1="21.1" x2="21.1" y2="21.1"/>
	<line class="st3" x1="21.1" y1="22.1" x2="21.1" y2="21.1"/>
	<line class="st3" x1="21.1" y1="21.1" x2="22.2" y2="21.1"/>
	<line class="st3" x1="21.1" y1="10.9" x2="21.1" y2="9.9"/>
	<line class="st3" x1="20.1" y1="10.9" x2="21.1" y2="10.9"/>
	<line class="st3" x1="21.1" y1="12" x2="21.1" y2="10.9"/>
	<line class="st3" x1="21.1" y1="10.9" x2="22.2" y2="10.9"/>
	<line class="st3" x1="10.9" y1="11" x2="10.9" y2="9.9"/>
	<line class="st3" x1="9.9" y1="11" x2="11" y2="11"/>
	<line class="st3" x1="10.9" y1="12" x2="10.9" y2="11"/>
	<line class="st3" x1="11" y1="11" x2="12" y2="11"/>
	<line class="st3" x1="10.9" y1="21.1" x2="10.9" y2="20.1"/>
	<line class="st3" x1="9.9" y1="21.1" x2="10.9" y2="21.1"/>
	<line class="st3" x1="10.9" y1="22.1" x2="10.9" y2="21.1"/>
	<line class="st3" x1="10.9" y1="21.1" x2="12" y2="21.1"/>
</g>
<g id="레이어_2">
</g>
</svg>
